# AST/ASF file generated using VICON BodyLanguage
# -----------------------------------------------
:version 1.10
:name VICON
:units
  mass 1.0
  length 0.45
  angle deg
:documentation
   .ast/.asf automatically generated from VICON data using
   VICON BodyBuilder and BodyLanguage model FoxedUp or BRILLIANT.MOD
:root
   order TX TY TZ RX RY RZ
   axis XYZ
   position 0 0 0  
   orientation 0 0 0 
:bonedata
  begin
     id 1 
     name lhipjoint
     direction 0.690799 -0.707083 0.151096 
     length 2.54797 
     axis 0 0 0  XYZ
  end
  begin
     id 2 
     name lfemur
     direction 0.34202 -0.939693 0  
     length 7.21646  
     axis 0 0 20  XYZ
    dof rx ry rz
    limits (-160.0 20.0)
           (-70.0 70.0)
           (-60.0 70.0)
  end
  begin
     id 3 
     name ltibia
     direction 0.34202 -0.939693 0   
     length 8.16759   
     axis 0 0 20   XYZ
    dof rx
    limits (-10.0 170.0)
  end
  begin
     id 4 
     name lfoot
     direction 0.0487203 -0.133858 0.989802   
     length 1.93375   
     axis -90 7.62852e-016 20   XYZ
    dof rx rz
    limits (-45.0 90.0)
           (-70.0 20.0)
  end
  begin
     id 5 
     name ltoes
     direction 1.53453e-011 -4.21783e-011 1   
     length 0.979747   
     axis -90 7.62852e-016 20   XYZ
    dof rx
    limits (-90.0 20.0)
  end
  begin
     id 6 
     name rhipjoint
     direction -0.694693 -0.703425 0.150315   
     length 2.56122  
     axis 0 0 0  XYZ 
  end
  begin
     id 7 
     name rfemur
     direction -0.34202 -0.939693 0   
     length 7.36786   
     axis 0 0 -20   XYZ
    dof rx ry rz
    limits (-160.0 20.0)
           (-70.0 70.0)
           (-70.0 60.0)
  end
  begin
     id 8 
     name rtibia
     direction -0.34202 -0.939693 0   
     length 8.07288   
     axis 0 0 -20   XYZ
    dof rx
    limits (-10.0 170.0)
 end
 begin
     id 9 
     name rfoot
     direction -0.0428397 -0.117701 0.992125   
     length 1.88295  
     axis -90 -7.62852e-016 -20   XYZ
    dof rx rz
    limits (-45.0 90.0)
           (-20.0 70.0)
  end
  begin
     id 10 
     name rtoes
     direction -1.53456e-011 -4.2187e-011 1   
     length 0.955578   
     axis -90 -7.62852e-016 -20   XYZ
    dof rx
    limits (-90.0 20.0)
  end
  begin
     id 11 
     name lowerback
     direction 0.0288145 0.999398 -0.0193241   
     length 1.92149   
     axis 0 0 0   XYZ
    dof rx ry rz
    limits (-20.0 45.0)
           (-30.0 30.0)
           (-30.0 30.0)
  end
  begin
     id 12 
     name upperback
     direction 0.0233784 0.998099 0.0570278   
     length 1.90435   
     axis 0 0 0   XYZ
    dof rx ry rz
    limits (-20.0 45.0)
           (-30.0 30.0)
           (-30.0 30.0)
  end
  begin
     id 13 
     name thorax
     direction 0.0096694 0.997833 0.0650817   
     length 1.9111   
     axis 0 0 0   XYZ
    dof rx ry rz
    limits (-20.0 45.0)
           (-30.0 30.0)
           (-30.0 30.0)
  end
  begin
     id 14 
     name lowerneck
     direction 0.00516803 0.999916 0.0118722   
     length 1.74664   
     axis 0 0 0   XYZ
    dof rx ry rz
    limits (-20.0 45.0)
           (-30.0 30.0)
           (-30.0 30.0)
  end
  begin
     id 15 
     name upperneck
     direction -0.0510851 0.996117 -0.071696   
     length 1.68498   
     axis 0 0 0   XYZ
    dof rx ry rz
    limits (-20.0 45.0)
           (-30.0 30.0)
           (-30.0 30.0)
  end
  begin
     id 16
     name head
     direction -0.019188 0.999436 -0.0275702  
     length 1.83483  
     axis 0 0 0   XYZ
    dof rx ry rz
    limits (-20.0 45.0)
           (-30.0 30.0)
           (-30.0 30.0)
  end
  begin
     id 17 
     name lclavicle
     direction 0.967006 0.248456 -0.0562957  
     length 3.39395  
     axis 0 0 0   XYZ
    dof ry rz
    limits (-20.0 10.0)
           (0.0 20.0)
  end
  begin
     id 18 
     name lhumerus
     direction 1 -4.48962e-011 -5.62711e-019   
     length 5.24318   
     axis 180 -30 -90   XYZ
    dof rx ry rz
    limits (-60.0 90.0)
           (-90.0 90.0)
           (-90.0 90.0)
  end
  begin
     id 19
     name lradius
     direction 1 -4.48966e-011 7.90625e-027   
     length 2.98999   
     axis 180 -30 -90   XYZ
    dof rx
    limits (-10.0 170.0)
  end
  begin
     id 20
     name lwrist
     direction 1 -4.48959e-011 1.61068e-026   
     length 1.49499   
     axis -9.31229e-015 90 90   XYZ
    dof ry
    limits (-180.0 0.0)
 end
  begin
     id 21 
     name lhand
     direction 1 -4.49017e-011 3.22136e-026   
     length 0.726745   
     axis -2.0555e-014 90 90   XYZ
    dof rx rz
    limits (-90.0 90.0)
           (-45.0 45.0)
  end
  begin
     id 22 
     name lfingers
     direction 1 -4.4898e-011 6.44272e-026   
     length 0.58592   
     axis -4.11101e-014 90 90   XYZ
    dof rx
    limits (0.0 90.0)
  end
  begin
     id 23
     name lthumb
     direction 0.707107 -6.34922e-011 0.707107   
     length 0.841268   
     axis -90 45 2.85299e-015   XYZ
    dof rx rz
    limits (-45.0 45.0)
           (-45.0 45.0)
  end
  begin
     id 24 
     name rclavicle
     direction -0.972232 0.230238 0.0419005   
     length 3.40416  
     axis 0 0 0   XYZ 
    dof ry rz
    limits (-10.0 20.0)
           (-20.0 0.0)
  end
  begin
     id 25 
     name rhumerus
     direction -1 -4.48976e-011 2.48487e-027  
     length 5.37045   
     axis 180 30 90   XYZ
    dof rx ry rz
    limits (-90.0 60.0)
           (-90.0 90.0)
           (-90.0 90.0)
  end
  begin
     id 26 
     name rradius
     direction -1 -4.48942e-011 7.87951e-027   
     length 2.92792   
     axis 180 30 90   XYZ
    dof rx
    limits (-10.0 170.0)
  end
  begin
     id 27 
     name rwrist
     direction -1 -4.48969e-011 1.61068e-026   
     length 1.46396   
     axis -9.31229e-015 -90 -90   XYZ
    dof ry
    limits (-180.0 0.0)
  end
  begin
     id 28
     name rhand
     direction -1 -4.49043e-011 3.22136e-026   
     length 0.784497   
     axis -2.0555e-014 -90 -90   XYZ
    dof rx rz
    limits (-90.0 90.0)
           (-45.0 45.0)
  end
  begin
     id 29
     name rfingers
     direction -1 -4.48823e-011 6.44272e-026   
     length 0.632482   
     axis -4.11101e-014 -90 -90   XYZ
    dof rx
    limits (0.0 90.0)
  end
  begin
     id 30
     name rthumb
     direction -0.707107 -6.34923e-011 0.707107   
     length 0.908121   
     axis -90 -45 -2.85299e-015   XYZ
    dof rx rz
    limits (-45.0 45.0)
           (-45.0 45.0)
  end
:hierarchy
  begin
    root lhipjoint rhipjoint lowerback
    lhipjoint lfemur
    lfemur ltibia
    ltibia lfoot
    lfoot ltoes
    rhipjoint rfemur
    rfemur rtibia
    rtibia rfoot
    rfoot rtoes
    lowerback upperback
    upperback thorax
    thorax lowerneck lclavicle rclavicle
    lowerneck upperneck
    upperneck head
    lclavicle lhumerus
    lhumerus lradius
    lradius lwrist
    lwrist lhand lthumb
    lhand lfingers
    rclavicle rhumerus
    rhumerus rradius
    rradius rwrist
    rwrist rhand rthumb
    rhand rfingers
  end

#!OML:ASF E:\Style6\Style6.ASF
:FULLY-SPECIFIED
:DEGREES
375
root 0.450566 16.0794 1.2874 19.415 0.297669 -0.712202
lowerback 3.15154 -1.0716 1.74891
upperback -12.2923 -0.927359 2.88127
thorax -15.3214 -0.416104 2.39602
lowerneck -7.78287 3.23723 2.40693
upperneck 12.6332 5.00041 -6.73889
head 5.31249 2.11882 -2.14668
rclavicle 1.59028e-015 1.90833e-014
rhumerus -78.0361 5.82286 -78.0496
rradius 127.833
rwrist -26.5593
rhand 56.6062 -0.1199
rfingers 7.12502
rthumb 73.5329 20.9808
lclavicle 1.59028e-015 1.90833e-014
lhumerus -80.6503 -12.2565 91.2162
lradius 119.432
lwrist 46.3026
lhand 29.6034 45.1369
lfingers 7.12502
lthumb 53.3501 64.4051
rfemur -50.4285 -20.1803 24.805
rtibia 62.9896
rfoot -24.0512 7.51139
rtoes -7.51466
lfemur -47.6309 11.222 -20.1695
ltibia 63.1501
lfoot -27.8136 1.57679
ltoes -24.5768
376
root 0.45349 16.077 1.30119 19.4568 0.402347 -0.788139
lowerback 2.97535 -1.06235 1.90468
upperback -12.4307 -0.900198 2.87379
thorax -15.3844 -0.422123 2.29729
lowerneck -7.75952 3.28423 2.39995
upperneck 12.6332 5.05518 -6.66155
head 5.30894 2.151 -2.11764
rclavicle -8.15017e-015 1.03368e-014
rhumerus -78.1686 5.7425 -78.0573
rradius 127.887
rwrist -26.5605
rhand 56.729 -0.293855
rfingers 7.12502
rthumb 73.5823 21.188
lclavicle -8.15017e-015 1.03368e-014
lhumerus -80.703 -12.0705 91.0753
lradius 119.443
lwrist 46.3005
lhand 29.6099 45.3021
lfingers 7.12502
lthumb 53.3559 64.5665
rfemur -50.408 -20.265 24.9043
rtibia 63.0092
rfoot -24.0243 7.80409
rtoes -6.13921
lfemur -47.6479 11.1671 -20.0657
ltibia 63.1844
lfoot -27.8882 1.58705
ltoes -24.6042
377
root 0.454126 16.0712 1.30992 19.5039 0.371071 -0.701701
lowerback 2.87923 -1.03435 1.79969
upperback -12.5655 -0.877973 2.83075
thorax -15.489 -0.401373 2.30728
lowerneck -7.68824 3.3344 2.45566
upperneck 12.5583 5.11074 -6.64809
head 5.27719 2.18475 -2.11963
rclavicle -1.41137e-014 1.43125e-014
rhumerus -78.2494 5.63042 -78.0747
rradius 127.882
rwrist -26.5547
rhand 56.815 -0.371496
rfingers 7.12502
rthumb 73.6164 21.3784
lclavicle -1.41137e-014 1.43125e-014
lhumerus -80.7404 -11.724 90.8033
lradius 119.453
lwrist 46.2094
lhand 29.8652 45.4248
lfingers 7.12502
lthumb 53.5857 64.5392
rfemur -50.4773 -20.2441 24.8027
rtibia 63.0636
rfoot -23.9564 8.0154
rtoes -4.85543
lfemur -47.6878 11.131 -20.1728
ltibia 63.2115
lfoot -27.9292 1.81408
ltoes -25.3824
378
root 0.453157 16.0657 1.31882 19.5194 0.364511 -0.689944
lowerback 2.82567 -1.00509 1.73024
upperback -12.6745 -0.843043 2.83597
thorax -15.5905 -0.374586 2.34977
lowerneck -7.65868 3.3684 2.46569
upperneck 12.4828 5.15063 -6.64003
head 5.25071 2.20748 -2.11638
rclavicle -2.36554e-014 1.11319e-014
rhumerus -78.3449 5.46393 -77.9992
rradius 127.868
rwrist -26.568
rhand 56.8707 -0.448911
rfingers 7.12502
rthumb 73.6383 21.4754
lclavicle -2.36554e-014 1.11319e-014
lhumerus -80.7694 -11.435 90.5924
lradius 119.461
lwrist 46.2268
lhand 30.0425 45.4495
lfingers 7.12502
lthumb 53.7452 64.4584
rfemur -50.5005 -20.1982 24.781
rtibia 63.1259
rfoot -23.9995 7.94314
rtoes -5.00046
lfemur -47.7018 11.1369 -20.1808
ltibia 63.2489
lfoot -27.9403 1.75483
ltoes -25.3893
379
root 0.453257 16.061 1.32805 19.4844 0.380409 -0.671228
lowerback 2.75837 -0.972771 1.66542
upperback -12.7237 -0.80561 2.83899
thorax -15.6082 -0.348102 2.38333
lowerneck -7.75412 3.38549 2.38435
upperneck 12.5021 5.17176 -6.54239
head 5.26949 2.21821 -2.06951
rclavicle -1.47101e-014 6.36111e-015
rhumerus -78.3624 5.28079 -77.8481
rradius 127.871
rwrist -26.6421
rhand 56.9787 -0.495974
rfingers 7.12502
rthumb 73.6804 21.7677
lclavicle -1.47101e-014 6.36111e-015
lhumerus -80.736 -11.3061 90.473
lradius 119.45
lwrist 46.3988
lhand 29.9845 45.3699
lfingers 7.12502
lthumb 53.693 64.4134
rfemur -50.461 -20.2252 24.7492
rtibia 63.1994
rfoot -24.043 7.90011
rtoes -5.06262
lfemur -47.6592 11.1406 -20.1844
ltibia 63.2815
lfoot -27.9429 1.70625
ltoes -25.4027
380
root 0.456501 16.0582 1.33758 19.4191 0.378872 -0.598709
lowerback 2.70316 -0.931664 1.58708
upperback -12.7539 -0.759779 2.82388
thorax -15.6099 -0.317639 2.40222
lowerneck -7.86503 3.3913 2.28315
upperneck 12.6024 5.18573 -6.44945
head 5.31522 2.22234 -2.02097
rclavicle 1.49089e-014 -7.95139e-015
rhumerus -78.3393 5.12002 -77.6904
rradius 127.863
rwrist -26.7011
rhand 57.0394 -0.459051
rfingers 7.12502
rthumb 73.7037 21.996
lclavicle 1.49089e-014 -7.95139e-015
lhumerus -80.7105 -11.1824 90.4237
lradius 119.466
lwrist 46.4954
lhand 29.8065 45.2866
lfingers 7.12502
lthumb 53.5329 64.4356
rfemur -50.3856 -20.289 24.6224
rtibia 63.274
rfoot -24.0176 8.11384
rtoes -3.90264
lfemur -47.5545 11.1428 -20.2601
ltibia 63.3076
lfoot -27.9931 1.75206
ltoes -25.4743
